<?xml version="1.0" encoding="UTF-8"?>
<svg width="100" height="100" viewBox="0 0 100 100" fill="none" xmlns="http://www.w3.org/2000/svg">
    <path fill-rule="evenodd" clip-rule="evenodd" d="M50 15C36.2 15 25 26.2 25 40C25 45 26.5 49.5 29 53L35 68H65L71 53C72.8 50.5 74 47.5 74.7 44L68 38L75 32C74.5 26 70 20 62 16L58 25L50 15ZM48 35L42 48H47L45 58L52 45H47L49 35H48Z" fill="black"/>
    
    <path d="M18 25L24 18L26 26L18 25Z" fill="black"/>
    <path d="M78 22L85 28L76 32L78 22Z" fill="black"/>
    <path d="M82 45L88 48L84 54L82 45Z" fill="black"/>
    <path d="M38 72H62V75H38V72ZM40 78H60V81C60 83.2 55.5 85 50 85C44.5 85 40 83.2 40 81V78Z" fill="black"/>
</svg>