<svg width="100" height="100" viewBox="0 0 100 100" fill="none" xmlns="http://www.w3.org/2000/svg">
    <path fill-rule="evenodd" clip-rule="evenodd" d="M50 10C27.9 10 10 27.9 10 50C10 67.7 21.5 82.7 37.4 88C39.4 88.4 40.1 87.1 40.1 86.1C40.1 85.1 40.1 82.5 40.1 79C29 81.4 26.6 73.7 26.6 73.7C24.8 69.2 22.2 68 22.2 68C18.6 65.5 22.5 65.6 22.5 65.6C26.5 65.9 28.6 69.7 28.6 69.7C32.1 75.8 37.9 74 40.2 73C40.6 70.5 41.6 68.7 42.7 67.8C33.8 66.8 24.5 63.3 24.5 48C24.5 43.6 26 40.1 28.6 37.3C28.2 36.3 26.8 32.2 29 26.6C29 26.6 32.3 25.5 40 30.7C43.2 29.8 46.6 29.4 50 29.4C53.4 29.4 56.8 29.8 60 30.7C67.7 25.5 71 26.6 71 26.6C73.2 32.2 71.8 36.3 71.4 37.3C74 40.1 75.5 43.6 75.5 48C75.5 63.4 66.2 66.7 57.2 67.7C58.7 69 60 71.5 60 75.4C60 81 60 85.5 60 86.1C60 87.1 60.7 88.4 62.7 88C78.5 82.7 90 67.7 90 50C90 27.9 72.1 10 50 10Z" fill="black"/>
</svg>