<?xml version="1.0" encoding="UTF-8"?>
<svg width="100" height="100" viewBox="0 0 100 100" fill="none" xmlns="http://www.w3.org/2000/svg">
    <path d="M50 18C37.8 18 28 27.8 28 40C28 47.1 30.7 53.3 35.1 57.8L37.4 65.5H62.6L64.9 57.8C69.3 53.3 72 47.1 72 40C72 27.8 62.2 18 50 18ZM35.3 68.5L33.4 62C27.5 56.6 25 48.7 25 40C25 26.2 36.2 15 50 15C63.8 15 75 26.2 75 40C75 48.7 72.5 56.6 66.6 62L64.7 68.5H35.3Z" fill="black"/>
    <path d="M52 32L45 45H50L48 55L55 42H50L52 32Z" fill="black"/>
    <path d="M38 72H62V75H38V72ZM40 78H60V81C60 83.2 55.5 85 50 85C44.5 85 40 83.2 40 81V78Z" fill="black"/>
</svg>